<mxfile host="65bd71144e">
    <diagram name="Page-1" id="-H_mtQnk-PTXWXPvYvuk">
        <mxGraphModel dx="1626" dy="779" grid="1" gridSize="10" guides="1" tooltips="1" connect="1" arrows="1" fold="1" page="1" pageScale="1" pageWidth="1169" pageHeight="827" math="0" shadow="0">
            <root>
                <mxCell id="0"/>
                <mxCell id="1" parent="0"/>
                <mxCell id="5" value="" style="" vertex="1" parent="1">
                    <mxGeometry x="40" y="40" width="330" height="130" as="geometry">
                        <mxRectangle x="-200" y="40" width="50" height="40" as="alternateBounds"/>
                    </mxGeometry>
                </mxCell>
                <mxCell id="zA23MoTUsTF4_91t8viU-2" value="MongoDB" style="shape=cylinder3;whiteSpace=wrap;html=1;boundedLbl=1;backgroundOutline=1;size=15;" parent="5" vertex="1">
                    <mxGeometry x="235" y="20" width="60" height="80" as="geometry"/>
                </mxCell>
                <mxCell id="zA23MoTUsTF4_91t8viU-3" value="pymongo-api" style="rounded=1;whiteSpace=wrap;html=1;" parent="5" vertex="1">
                    <mxGeometry x="35" y="30" width="120" height="60" as="geometry"/>
                </mxCell>
                <mxCell id="zA23MoTUsTF4_91t8viU-4" style="edgeStyle=orthogonalEdgeStyle;rounded=0;orthogonalLoop=1;jettySize=auto;html=1;exitX=1;exitY=0.5;exitDx=0;exitDy=0;entryX=0;entryY=0.5;entryDx=0;entryDy=0;entryPerimeter=0;" parent="5" source="zA23MoTUsTF4_91t8viU-3" target="zA23MoTUsTF4_91t8viU-2" edge="1">
                    <mxGeometry relative="1" as="geometry"/>
                </mxCell>
                <mxCell id="41" value="&lt;span style=&quot;color: rgba(0, 0, 0, 0.85); font-family: &amp;quot;YS Text&amp;quot;, Arial, Helvetica, sans-serif; font-size: 18px; font-weight: 400; text-align: left; background-color: rgb(255, 255, 255);&quot;&gt;2. репликация MongoDB&lt;/span&gt;" style="swimlane;whiteSpace=wrap;html=1;fontSize=14;" vertex="1" parent="1">
                    <mxGeometry x="40" y="600" width="1120" height="1220" as="geometry">
                        <mxRectangle x="40" y="600" width="330" height="30" as="alternateBounds"/>
                    </mxGeometry>
                </mxCell>
                <mxCell id="42" value="pymongo-api" style="rounded=1;whiteSpace=wrap;html=1;" vertex="1" parent="41">
                    <mxGeometry x="50" y="400" width="120" height="60" as="geometry"/>
                </mxCell>
                <mxCell id="123" value="" style="" vertex="1" parent="41">
                    <mxGeometry x="380" y="30" width="730" height="870" as="geometry">
                        <mxRectangle x="260" y="10" width="50" height="40" as="alternateBounds"/>
                    </mxGeometry>
                </mxCell>
                <mxCell id="126" value="MongoDB" style="text;html=1;strokeColor=none;fillColor=none;align=center;verticalAlign=middle;whiteSpace=wrap;rounded=0;fontSize=14;" vertex="1" parent="123">
                    <mxGeometry x="9.73" y="10" width="77.87" height="40" as="geometry"/>
                </mxCell>
                <mxCell id="127" value="" style="endArrow=none;dashed=1;html=1;dashPattern=1 3;strokeWidth=2;fontSize=14;entryX=0.5;entryY=0;entryDx=0;entryDy=0;exitX=0.5;exitY=1;exitDx=0;exitDy=0;" edge="1" parent="123">
                    <mxGeometry width="50" height="50" relative="1" as="geometry">
                        <mxPoint x="-29.2" y="322.22222222222223" as="sourcePoint"/>
                        <mxPoint x="-29.2" y="322.22222222222223" as="targetPoint"/>
                    </mxGeometry>
                </mxCell>
                <mxCell id="45" value="" style="" vertex="1" collapsed="1" parent="123">
                    <mxGeometry x="220" y="60" width="500" height="370" as="geometry">
                        <mxRectangle x="480" y="680" width="200" height="200" as="alternateBounds"/>
                    </mxGeometry>
                </mxCell>
                <mxCell id="47" value="" style="endArrow=none;dashed=1;html=1;dashPattern=1 3;strokeWidth=2;fontSize=14;exitX=0;exitY=0.5;exitDx=0;exitDy=0;entryX=1;entryY=0.5;entryDx=0;entryDy=0;" edge="1" parent="123" source="45" target="45">
                    <mxGeometry width="50" height="50" relative="1" as="geometry">
                        <mxPoint x="170" y="-470" as="sourcePoint"/>
                        <mxPoint x="220" y="-520" as="targetPoint"/>
                    </mxGeometry>
                </mxCell>
                <mxCell id="100" value="" style="" vertex="1" collapsed="1" parent="123">
                    <mxGeometry x="220" y="460" width="499.73" height="400" as="geometry">
                        <mxRectangle x="480" y="680" width="200" height="200" as="alternateBounds"/>
                    </mxGeometry>
                </mxCell>
                <mxCell id="81" value="master A" style="shape=cylinder3;whiteSpace=wrap;html=1;boundedLbl=1;backgroundOutline=1;size=15;" vertex="1" parent="123">
                    <mxGeometry x="460" y="100" width="70" height="60" as="geometry"/>
                </mxCell>
                <mxCell id="82" value="master B" style="shape=cylinder3;whiteSpace=wrap;html=1;boundedLbl=1;backgroundOutline=1;size=15;" vertex="1" parent="123">
                    <mxGeometry x="460" y="220" width="70" height="60" as="geometry"/>
                </mxCell>
                <mxCell id="83" value="master C" style="shape=cylinder3;whiteSpace=wrap;html=1;boundedLbl=1;backgroundOutline=1;size=15;" vertex="1" parent="123">
                    <mxGeometry x="460" y="340" width="70" height="60" as="geometry"/>
                </mxCell>
                <mxCell id="84" value="" style="endArrow=classic;startArrow=classic;html=1;fontSize=14;entryX=0.5;entryY=1;entryDx=0;entryDy=0;entryPerimeter=0;" edge="1" parent="123" target="82">
                    <mxGeometry width="50" height="50" relative="1" as="geometry">
                        <mxPoint x="495" y="340" as="sourcePoint"/>
                        <mxPoint x="750" y="320" as="targetPoint"/>
                    </mxGeometry>
                </mxCell>
                <mxCell id="85" value="" style="endArrow=classic;startArrow=classic;html=1;fontSize=14;entryX=0.5;entryY=1;entryDx=0;entryDy=0;entryPerimeter=0;" edge="1" parent="123">
                    <mxGeometry width="50" height="50" relative="1" as="geometry">
                        <mxPoint x="494.5" y="220" as="sourcePoint"/>
                        <mxPoint x="494.5" y="160" as="targetPoint"/>
                    </mxGeometry>
                </mxCell>
                <mxCell id="86" value="slave A1" style="shape=cylinder3;whiteSpace=wrap;html=1;boundedLbl=1;backgroundOutline=1;size=15;" vertex="1" parent="123">
                    <mxGeometry x="620" y="70" width="70" height="50" as="geometry"/>
                </mxCell>
                <mxCell id="87" value="slave A2" style="shape=cylinder3;whiteSpace=wrap;html=1;boundedLbl=1;backgroundOutline=1;size=15;" vertex="1" parent="123">
                    <mxGeometry x="620" y="130" width="70" height="50" as="geometry"/>
                </mxCell>
                <mxCell id="88" value="" style="shape=partialRectangle;whiteSpace=wrap;html=1;bottom=1;right=1;left=1;top=0;fillColor=none;routingCenterX=-0.5;fontSize=14;direction=south;" vertex="1" parent="123">
                    <mxGeometry x="580" y="100" width="40" height="60" as="geometry"/>
                </mxCell>
                <mxCell id="89" value="" style="endArrow=classic;html=1;fontSize=14;exitX=1;exitY=0.5;exitDx=0;exitDy=0;exitPerimeter=0;entryX=0.5;entryY=0.95;entryDx=0;entryDy=0;entryPerimeter=0;" edge="1" parent="123" source="81" target="88">
                    <mxGeometry width="50" height="50" relative="1" as="geometry">
                        <mxPoint x="700" y="470" as="sourcePoint"/>
                        <mxPoint x="550" y="130" as="targetPoint"/>
                    </mxGeometry>
                </mxCell>
                <mxCell id="90" value="slave B1" style="shape=cylinder3;whiteSpace=wrap;html=1;boundedLbl=1;backgroundOutline=1;size=15;" vertex="1" parent="123">
                    <mxGeometry x="620" y="190" width="70" height="50" as="geometry"/>
                </mxCell>
                <mxCell id="91" value="slave B2" style="shape=cylinder3;whiteSpace=wrap;html=1;boundedLbl=1;backgroundOutline=1;size=15;" vertex="1" parent="123">
                    <mxGeometry x="620" y="250" width="70" height="50" as="geometry"/>
                </mxCell>
                <mxCell id="92" value="" style="shape=partialRectangle;whiteSpace=wrap;html=1;bottom=1;right=1;left=1;top=0;fillColor=none;routingCenterX=-0.5;fontSize=14;direction=south;" vertex="1" parent="123">
                    <mxGeometry x="580" y="220" width="40" height="60" as="geometry"/>
                </mxCell>
                <mxCell id="93" value="" style="endArrow=classic;html=1;fontSize=14;exitX=1;exitY=0.5;exitDx=0;exitDy=0;exitPerimeter=0;entryX=0.5;entryY=0.95;entryDx=0;entryDy=0;entryPerimeter=0;" edge="1" parent="123" target="92">
                    <mxGeometry width="50" height="50" relative="1" as="geometry">
                        <mxPoint x="530" y="250" as="sourcePoint"/>
                        <mxPoint x="550" y="250" as="targetPoint"/>
                    </mxGeometry>
                </mxCell>
                <mxCell id="94" value="slave C1" style="shape=cylinder3;whiteSpace=wrap;html=1;boundedLbl=1;backgroundOutline=1;size=15;" vertex="1" parent="123">
                    <mxGeometry x="620" y="310" width="70" height="50" as="geometry"/>
                </mxCell>
                <mxCell id="95" value="slave C2" style="shape=cylinder3;whiteSpace=wrap;html=1;boundedLbl=1;backgroundOutline=1;size=15;" vertex="1" parent="123">
                    <mxGeometry x="620" y="370" width="70" height="50" as="geometry"/>
                </mxCell>
                <mxCell id="96" value="" style="shape=partialRectangle;whiteSpace=wrap;html=1;bottom=1;right=1;left=1;top=0;fillColor=none;routingCenterX=-0.5;fontSize=14;direction=south;" vertex="1" parent="123">
                    <mxGeometry x="580" y="340" width="40" height="60" as="geometry"/>
                </mxCell>
                <mxCell id="97" value="" style="endArrow=classic;html=1;fontSize=14;exitX=1;exitY=0.5;exitDx=0;exitDy=0;exitPerimeter=0;entryX=0.5;entryY=0.95;entryDx=0;entryDy=0;entryPerimeter=0;" edge="1" parent="123" target="96">
                    <mxGeometry width="50" height="50" relative="1" as="geometry">
                        <mxPoint x="530" y="370" as="sourcePoint"/>
                        <mxPoint x="550" y="370" as="targetPoint"/>
                    </mxGeometry>
                </mxCell>
                <mxCell id="101" value="master A" style="shape=cylinder3;whiteSpace=wrap;html=1;boundedLbl=1;backgroundOutline=1;size=15;" vertex="1" parent="123">
                    <mxGeometry x="450" y="515" width="70" height="60" as="geometry"/>
                </mxCell>
                <mxCell id="109" value="" style="endArrow=classic;html=1;fontSize=14;exitX=1;exitY=0.5;exitDx=0;exitDy=0;exitPerimeter=0;entryX=0.5;entryY=0.95;entryDx=0;entryDy=0;entryPerimeter=0;" edge="1" parent="123" source="101" target="108">
                    <mxGeometry width="50" height="50" relative="1" as="geometry">
                        <mxPoint x="690" y="885" as="sourcePoint"/>
                        <mxPoint x="540" y="545" as="targetPoint"/>
                    </mxGeometry>
                </mxCell>
                <mxCell id="102" value="master B" style="shape=cylinder3;whiteSpace=wrap;html=1;boundedLbl=1;backgroundOutline=1;size=15;" vertex="1" parent="123">
                    <mxGeometry x="450" y="635" width="70" height="60" as="geometry"/>
                </mxCell>
                <mxCell id="103" value="master C" style="shape=cylinder3;whiteSpace=wrap;html=1;boundedLbl=1;backgroundOutline=1;size=15;" vertex="1" parent="123">
                    <mxGeometry x="450" y="755" width="70" height="60" as="geometry"/>
                </mxCell>
                <mxCell id="104" value="" style="endArrow=classic;startArrow=classic;html=1;fontSize=14;entryX=0.5;entryY=1;entryDx=0;entryDy=0;entryPerimeter=0;" edge="1" parent="123" target="102">
                    <mxGeometry width="50" height="50" relative="1" as="geometry">
                        <mxPoint x="485" y="755" as="sourcePoint"/>
                        <mxPoint x="740" y="735" as="targetPoint"/>
                    </mxGeometry>
                </mxCell>
                <mxCell id="105" value="" style="endArrow=classic;startArrow=classic;html=1;fontSize=14;entryX=0.5;entryY=1;entryDx=0;entryDy=0;entryPerimeter=0;" edge="1" parent="123">
                    <mxGeometry width="50" height="50" relative="1" as="geometry">
                        <mxPoint x="484.5" y="635" as="sourcePoint"/>
                        <mxPoint x="484.5" y="575" as="targetPoint"/>
                    </mxGeometry>
                </mxCell>
                <mxCell id="106" value="slave A1" style="shape=cylinder3;whiteSpace=wrap;html=1;boundedLbl=1;backgroundOutline=1;size=15;" vertex="1" parent="123">
                    <mxGeometry x="610" y="485" width="70" height="50" as="geometry"/>
                </mxCell>
                <mxCell id="107" value="slave A2" style="shape=cylinder3;whiteSpace=wrap;html=1;boundedLbl=1;backgroundOutline=1;size=15;" vertex="1" parent="123">
                    <mxGeometry x="610" y="545" width="70" height="50" as="geometry"/>
                </mxCell>
                <mxCell id="108" value="" style="shape=partialRectangle;whiteSpace=wrap;html=1;bottom=1;right=1;left=1;top=0;fillColor=none;routingCenterX=-0.5;fontSize=14;direction=south;" vertex="1" parent="123">
                    <mxGeometry x="570" y="515" width="40" height="60" as="geometry"/>
                </mxCell>
                <mxCell id="110" value="slave B1" style="shape=cylinder3;whiteSpace=wrap;html=1;boundedLbl=1;backgroundOutline=1;size=15;" vertex="1" parent="123">
                    <mxGeometry x="610" y="605" width="70" height="50" as="geometry"/>
                </mxCell>
                <mxCell id="111" value="slave B2" style="shape=cylinder3;whiteSpace=wrap;html=1;boundedLbl=1;backgroundOutline=1;size=15;" vertex="1" parent="123">
                    <mxGeometry x="610" y="665" width="70" height="50" as="geometry"/>
                </mxCell>
                <mxCell id="112" value="" style="shape=partialRectangle;whiteSpace=wrap;html=1;bottom=1;right=1;left=1;top=0;fillColor=none;routingCenterX=-0.5;fontSize=14;direction=south;" vertex="1" parent="123">
                    <mxGeometry x="570" y="635" width="40" height="60" as="geometry"/>
                </mxCell>
                <mxCell id="113" value="" style="endArrow=classic;html=1;fontSize=14;exitX=1;exitY=0.5;exitDx=0;exitDy=0;exitPerimeter=0;entryX=0.5;entryY=0.95;entryDx=0;entryDy=0;entryPerimeter=0;" edge="1" parent="123" target="112">
                    <mxGeometry width="50" height="50" relative="1" as="geometry">
                        <mxPoint x="520" y="665" as="sourcePoint"/>
                        <mxPoint x="540" y="665" as="targetPoint"/>
                    </mxGeometry>
                </mxCell>
                <mxCell id="114" value="slave C1" style="shape=cylinder3;whiteSpace=wrap;html=1;boundedLbl=1;backgroundOutline=1;size=15;" vertex="1" parent="123">
                    <mxGeometry x="610" y="725" width="70" height="50" as="geometry"/>
                </mxCell>
                <mxCell id="115" value="slave C2" style="shape=cylinder3;whiteSpace=wrap;html=1;boundedLbl=1;backgroundOutline=1;size=15;" vertex="1" parent="123">
                    <mxGeometry x="610" y="785" width="70" height="50" as="geometry"/>
                </mxCell>
                <mxCell id="116" value="" style="shape=partialRectangle;whiteSpace=wrap;html=1;bottom=1;right=1;left=1;top=0;fillColor=none;routingCenterX=-0.5;fontSize=14;direction=south;" vertex="1" parent="123">
                    <mxGeometry x="570" y="755" width="40" height="60" as="geometry"/>
                </mxCell>
                <mxCell id="117" value="" style="endArrow=classic;html=1;fontSize=14;exitX=1;exitY=0.5;exitDx=0;exitDy=0;exitPerimeter=0;entryX=0.5;entryY=0.95;entryDx=0;entryDy=0;entryPerimeter=0;" edge="1" parent="123" target="116">
                    <mxGeometry width="50" height="50" relative="1" as="geometry">
                        <mxPoint x="520" y="785" as="sourcePoint"/>
                        <mxPoint x="540" y="785" as="targetPoint"/>
                    </mxGeometry>
                </mxCell>
                <mxCell id="118" value="Шард2" style="text;html=1;strokeColor=none;fillColor=none;align=center;verticalAlign=middle;whiteSpace=wrap;rounded=0;fontSize=14;" vertex="1" parent="123">
                    <mxGeometry x="240" y="490" width="80" height="30" as="geometry"/>
                </mxCell>
                <mxCell id="98" value="Шард1" style="text;html=1;strokeColor=none;fillColor=none;align=center;verticalAlign=middle;whiteSpace=wrap;rounded=0;fontSize=14;" vertex="1" parent="123">
                    <mxGeometry x="240" y="90" width="80" height="30" as="geometry"/>
                </mxCell>
                <mxCell id="43" value="" style="endArrow=none;dashed=1;html=1;dashPattern=1 3;strokeWidth=2;fontSize=14;exitX=0.25;exitY=1;exitDx=0;exitDy=0;entryX=0.25;entryY=0;entryDx=0;entryDy=0;" edge="1" parent="1" source="41" target="41">
                    <mxGeometry width="50" height="50" relative="1" as="geometry">
                        <mxPoint x="560" y="610" as="sourcePoint"/>
                        <mxPoint x="610" y="560" as="targetPoint"/>
                    </mxGeometry>
                </mxCell>
                <mxCell id="48" value="master A" style="shape=cylinder3;whiteSpace=wrap;html=1;boundedLbl=1;backgroundOutline=1;size=15;" vertex="1" parent="1">
                    <mxGeometry x="190" y="4380" width="70" height="60" as="geometry"/>
                </mxCell>
                <mxCell id="49" value="master B" style="shape=cylinder3;whiteSpace=wrap;html=1;boundedLbl=1;backgroundOutline=1;size=15;" vertex="1" parent="1">
                    <mxGeometry x="190" y="4500" width="70" height="60" as="geometry"/>
                </mxCell>
                <mxCell id="50" value="master C" style="shape=cylinder3;whiteSpace=wrap;html=1;boundedLbl=1;backgroundOutline=1;size=15;" vertex="1" parent="1">
                    <mxGeometry x="190" y="4620" width="70" height="60" as="geometry"/>
                </mxCell>
                <mxCell id="51" value="" style="endArrow=classic;startArrow=classic;html=1;fontSize=14;entryX=0.5;entryY=1;entryDx=0;entryDy=0;entryPerimeter=0;" edge="1" parent="1" target="49">
                    <mxGeometry width="50" height="50" relative="1" as="geometry">
                        <mxPoint x="225" y="4620" as="sourcePoint"/>
                        <mxPoint x="480" y="4600" as="targetPoint"/>
                    </mxGeometry>
                </mxCell>
                <mxCell id="54" value="" style="endArrow=classic;startArrow=classic;html=1;fontSize=14;entryX=0.5;entryY=1;entryDx=0;entryDy=0;entryPerimeter=0;" edge="1" parent="1">
                    <mxGeometry width="50" height="50" relative="1" as="geometry">
                        <mxPoint x="224.5" y="4500" as="sourcePoint"/>
                        <mxPoint x="224.5" y="4440" as="targetPoint"/>
                    </mxGeometry>
                </mxCell>
                <mxCell id="55" value="slave A1" style="shape=cylinder3;whiteSpace=wrap;html=1;boundedLbl=1;backgroundOutline=1;size=15;" vertex="1" parent="1">
                    <mxGeometry x="350" y="4350" width="70" height="50" as="geometry"/>
                </mxCell>
                <mxCell id="57" value="slave A2" style="shape=cylinder3;whiteSpace=wrap;html=1;boundedLbl=1;backgroundOutline=1;size=15;" vertex="1" parent="1">
                    <mxGeometry x="350" y="4410" width="70" height="50" as="geometry"/>
                </mxCell>
                <mxCell id="65" value="" style="shape=partialRectangle;whiteSpace=wrap;html=1;bottom=1;right=1;left=1;top=0;fillColor=none;routingCenterX=-0.5;fontSize=14;direction=south;" vertex="1" parent="1">
                    <mxGeometry x="310" y="4380" width="40" height="60" as="geometry"/>
                </mxCell>
                <mxCell id="66" value="" style="endArrow=classic;html=1;fontSize=14;exitX=1;exitY=0.5;exitDx=0;exitDy=0;exitPerimeter=0;entryX=0.5;entryY=0.95;entryDx=0;entryDy=0;entryPerimeter=0;" edge="1" parent="1" source="48" target="65">
                    <mxGeometry width="50" height="50" relative="1" as="geometry">
                        <mxPoint x="430" y="4750" as="sourcePoint"/>
                        <mxPoint x="280" y="4410" as="targetPoint"/>
                    </mxGeometry>
                </mxCell>
                <mxCell id="73" value="slave B1" style="shape=cylinder3;whiteSpace=wrap;html=1;boundedLbl=1;backgroundOutline=1;size=15;" vertex="1" parent="1">
                    <mxGeometry x="350" y="4470" width="70" height="50" as="geometry"/>
                </mxCell>
                <mxCell id="74" value="slave B2" style="shape=cylinder3;whiteSpace=wrap;html=1;boundedLbl=1;backgroundOutline=1;size=15;" vertex="1" parent="1">
                    <mxGeometry x="350" y="4530" width="70" height="50" as="geometry"/>
                </mxCell>
                <mxCell id="75" value="" style="shape=partialRectangle;whiteSpace=wrap;html=1;bottom=1;right=1;left=1;top=0;fillColor=none;routingCenterX=-0.5;fontSize=14;direction=south;" vertex="1" parent="1">
                    <mxGeometry x="310" y="4500" width="40" height="60" as="geometry"/>
                </mxCell>
                <mxCell id="76" value="" style="endArrow=classic;html=1;fontSize=14;exitX=1;exitY=0.5;exitDx=0;exitDy=0;exitPerimeter=0;entryX=0.5;entryY=0.95;entryDx=0;entryDy=0;entryPerimeter=0;" edge="1" parent="1" target="75">
                    <mxGeometry width="50" height="50" relative="1" as="geometry">
                        <mxPoint x="260" y="4530" as="sourcePoint"/>
                        <mxPoint x="280" y="4530" as="targetPoint"/>
                    </mxGeometry>
                </mxCell>
                <mxCell id="77" value="slave C1" style="shape=cylinder3;whiteSpace=wrap;html=1;boundedLbl=1;backgroundOutline=1;size=15;" vertex="1" parent="1">
                    <mxGeometry x="350" y="4590" width="70" height="50" as="geometry"/>
                </mxCell>
                <mxCell id="78" value="slave C2" style="shape=cylinder3;whiteSpace=wrap;html=1;boundedLbl=1;backgroundOutline=1;size=15;" vertex="1" parent="1">
                    <mxGeometry x="350" y="4650" width="70" height="50" as="geometry"/>
                </mxCell>
                <mxCell id="79" value="" style="shape=partialRectangle;whiteSpace=wrap;html=1;bottom=1;right=1;left=1;top=0;fillColor=none;routingCenterX=-0.5;fontSize=14;direction=south;" vertex="1" parent="1">
                    <mxGeometry x="310" y="4620" width="40" height="60" as="geometry"/>
                </mxCell>
                <mxCell id="80" value="" style="endArrow=classic;html=1;fontSize=14;exitX=1;exitY=0.5;exitDx=0;exitDy=0;exitPerimeter=0;entryX=0.5;entryY=0.95;entryDx=0;entryDy=0;entryPerimeter=0;" edge="1" parent="1" target="79">
                    <mxGeometry width="50" height="50" relative="1" as="geometry">
                        <mxPoint x="260" y="4650" as="sourcePoint"/>
                        <mxPoint x="280" y="4650" as="targetPoint"/>
                    </mxGeometry>
                </mxCell>
                <mxCell id="121" value="&lt;span style=&quot;color: rgba(0, 0, 0, 0.85); font-family: &amp;quot;YS Text&amp;quot;, Arial, Helvetica, sans-serif; font-weight: 400; text-align: left; background-color: rgb(255, 255, 255);&quot;&gt;&lt;font style=&quot;font-size: 18px;&quot;&gt;1. шардирование в MongoDB&lt;/font&gt;&lt;/span&gt;" style="swimlane;whiteSpace=wrap;html=1;fontSize=14;" vertex="1" parent="1">
                    <mxGeometry x="40" y="210" width="1120" height="320" as="geometry">
                        <mxRectangle x="40" y="210" width="280" height="40" as="alternateBounds"/>
                    </mxGeometry>
                </mxCell>
                <mxCell id="120" value="" style="" vertex="1" parent="121">
                    <mxGeometry x="510" y="40" width="570" height="270" as="geometry">
                        <mxRectangle x="260" y="10" width="50" height="40" as="alternateBounds"/>
                    </mxGeometry>
                </mxCell>
                <mxCell id="27" value="Шард1" style="shape=cylinder3;whiteSpace=wrap;html=1;boundedLbl=1;backgroundOutline=1;size=15;" vertex="1" parent="120">
                    <mxGeometry x="205.2" y="35" width="182.4" height="90" as="geometry"/>
                </mxCell>
                <mxCell id="31" value="Шард2" style="shape=cylinder3;whiteSpace=wrap;html=1;boundedLbl=1;backgroundOutline=1;size=15;" vertex="1" parent="120">
                    <mxGeometry x="205.2" y="145" width="182.4" height="90" as="geometry"/>
                </mxCell>
                <mxCell id="39" value="MongoDB" style="text;html=1;strokeColor=none;fillColor=none;align=center;verticalAlign=middle;whiteSpace=wrap;rounded=0;fontSize=14;" vertex="1" parent="120">
                    <mxGeometry x="7.6" y="10" width="60.8" height="30" as="geometry"/>
                </mxCell>
                <mxCell id="38" value="" style="endArrow=none;dashed=1;html=1;dashPattern=1 3;strokeWidth=2;fontSize=14;entryX=0.5;entryY=0;entryDx=0;entryDy=0;exitX=0.5;exitY=1;exitDx=0;exitDy=0;" edge="1" parent="120">
                    <mxGeometry width="50" height="50" relative="1" as="geometry">
                        <mxPoint x="-22.8" y="100" as="sourcePoint"/>
                        <mxPoint x="-22.8" y="100" as="targetPoint"/>
                    </mxGeometry>
                </mxCell>
                <mxCell id="24" value="pymongo-api" style="rounded=1;whiteSpace=wrap;html=1;" vertex="1" parent="121">
                    <mxGeometry x="20" y="140" width="120" height="60" as="geometry"/>
                </mxCell>
                <mxCell id="36" value="" style="edgeStyle=none;html=1;entryX=0.003;entryY=0.478;entryDx=0;entryDy=0;entryPerimeter=0;" edge="1" parent="121" target="120">
                    <mxGeometry relative="1" as="geometry">
                        <mxPoint x="140" y="169" as="sourcePoint"/>
                        <mxPoint x="-60" y="220" as="targetPoint"/>
                    </mxGeometry>
                </mxCell>
                <mxCell id="910AtOY65dqWxyU9QAo8-127" value="&lt;span style=&quot;color: rgba(0, 0, 0, 0.85); font-family: &amp;quot;YS Text&amp;quot;, Arial, Helvetica, sans-serif; font-size: 18px; font-weight: 400; text-align: left; background-color: rgb(255, 255, 255);&quot;&gt;3. К&lt;/span&gt;&lt;span style=&quot;color: rgba(0, 0, 0, 0.85); font-family: &amp;quot;YS Text&amp;quot;, Arial, Helvetica, sans-serif; font-size: 18px; font-weight: 400; text-align: left; background-color: rgb(255, 255, 255);&quot;&gt;эширование&amp;nbsp;&lt;/span&gt;" style="swimlane;whiteSpace=wrap;html=1;fontSize=14;" vertex="1" parent="1">
                    <mxGeometry x="40" y="1850" width="1120" height="920" as="geometry">
                        <mxRectangle x="40" y="1850" width="330" height="30" as="alternateBounds"/>
                    </mxGeometry>
                </mxCell>
                <mxCell id="910AtOY65dqWxyU9QAo8-128" value="pymongo-api" style="rounded=1;whiteSpace=wrap;html=1;" vertex="1" parent="910AtOY65dqWxyU9QAo8-127">
                    <mxGeometry x="30" y="440" width="120" height="60" as="geometry"/>
                </mxCell>
                <mxCell id="910AtOY65dqWxyU9QAo8-129" value="" style="" vertex="1" parent="910AtOY65dqWxyU9QAo8-127">
                    <mxGeometry x="200" y="30" width="910" height="870" as="geometry">
                        <mxRectangle x="260" y="10" width="50" height="40" as="alternateBounds"/>
                    </mxGeometry>
                </mxCell>
                <mxCell id="910AtOY65dqWxyU9QAo8-130" value="MongoDB" style="text;html=1;strokeColor=none;fillColor=none;align=center;verticalAlign=middle;whiteSpace=wrap;rounded=0;fontSize=14;" vertex="1" parent="910AtOY65dqWxyU9QAo8-129">
                    <mxGeometry x="12.129178082191782" y="10" width="97.07082191780823" height="40" as="geometry"/>
                </mxCell>
                <mxCell id="910AtOY65dqWxyU9QAo8-133" value="" style="endArrow=none;dashed=1;html=1;dashPattern=1 3;strokeWidth=2;fontSize=14;exitX=0;exitY=0.5;exitDx=0;exitDy=0;entryX=1;entryY=0.5;entryDx=0;entryDy=0;" edge="1" parent="910AtOY65dqWxyU9QAo8-129" source="910AtOY65dqWxyU9QAo8-132" target="910AtOY65dqWxyU9QAo8-132">
                    <mxGeometry width="50" height="50" relative="1" as="geometry">
                        <mxPoint x="211.91780821917808" y="-470" as="sourcePoint"/>
                        <mxPoint x="274.2465753424658" y="-520" as="targetPoint"/>
                    </mxGeometry>
                </mxCell>
                <mxCell id="910AtOY65dqWxyU9QAo8-134" value="" style="" vertex="1" collapsed="1" parent="910AtOY65dqWxyU9QAo8-129">
                    <mxGeometry x="40" y="460" width="857.2" height="400" as="geometry">
                        <mxRectangle x="480" y="680" width="200" height="200" as="alternateBounds"/>
                    </mxGeometry>
                </mxCell>
                <mxCell id="910AtOY65dqWxyU9QAo8-189" value="" style="" vertex="1" collapsed="1" parent="910AtOY65dqWxyU9QAo8-129">
                    <mxGeometry x="40" y="50" width="850" height="390" as="geometry">
                        <mxRectangle x="480" y="680" width="200" height="200" as="alternateBounds"/>
                    </mxGeometry>
                </mxCell>
                <mxCell id="910AtOY65dqWxyU9QAo8-132" value="" style="" vertex="1" collapsed="1" parent="910AtOY65dqWxyU9QAo8-129">
                    <mxGeometry x="550" y="60" width="327.53" height="370" as="geometry">
                        <mxRectangle x="480" y="680" width="200" height="200" as="alternateBounds"/>
                    </mxGeometry>
                </mxCell>
                <mxCell id="910AtOY65dqWxyU9QAo8-208" value="master A" style="shape=cylinder3;whiteSpace=wrap;html=1;boundedLbl=1;backgroundOutline=1;size=15;" vertex="1" parent="910AtOY65dqWxyU9QAo8-129">
                    <mxGeometry x="579.998904109589" y="100" width="87.26027397260275" height="60" as="geometry"/>
                </mxCell>
                <mxCell id="910AtOY65dqWxyU9QAo8-209" value="" style="endArrow=classic;html=1;fontSize=14;exitX=1;exitY=0.5;exitDx=0;exitDy=0;exitPerimeter=0;entryX=0.5;entryY=0.95;entryDx=0;entryDy=0;entryPerimeter=0;" edge="1" parent="910AtOY65dqWxyU9QAo8-129" source="910AtOY65dqWxyU9QAo8-208" target="910AtOY65dqWxyU9QAo8-216">
                    <mxGeometry width="50" height="50" relative="1" as="geometry">
                        <mxPoint x="639.1769863013699" y="-1400" as="sourcePoint"/>
                        <mxPoint x="452.1906849315069" y="-1740" as="targetPoint"/>
                    </mxGeometry>
                </mxCell>
                <mxCell id="910AtOY65dqWxyU9QAo8-210" value="master B" style="shape=cylinder3;whiteSpace=wrap;html=1;boundedLbl=1;backgroundOutline=1;size=15;" vertex="1" parent="910AtOY65dqWxyU9QAo8-129">
                    <mxGeometry x="579.998904109589" y="220" width="87.26027397260275" height="60" as="geometry"/>
                </mxCell>
                <mxCell id="910AtOY65dqWxyU9QAo8-211" value="master C" style="shape=cylinder3;whiteSpace=wrap;html=1;boundedLbl=1;backgroundOutline=1;size=15;" vertex="1" parent="910AtOY65dqWxyU9QAo8-129">
                    <mxGeometry x="579.998904109589" y="340" width="87.26027397260275" height="60" as="geometry"/>
                </mxCell>
                <mxCell id="910AtOY65dqWxyU9QAo8-212" value="" style="endArrow=classic;startArrow=classic;html=1;fontSize=14;entryX=0.5;entryY=1;entryDx=0;entryDy=0;entryPerimeter=0;" edge="1" parent="910AtOY65dqWxyU9QAo8-129" target="910AtOY65dqWxyU9QAo8-210">
                    <mxGeometry width="50" height="50" relative="1" as="geometry">
                        <mxPoint x="623.6290410958904" y="340" as="sourcePoint"/>
                        <mxPoint x="701.5057534246575" y="-1550" as="targetPoint"/>
                    </mxGeometry>
                </mxCell>
                <mxCell id="910AtOY65dqWxyU9QAo8-213" value="" style="endArrow=classic;startArrow=classic;html=1;fontSize=14;entryX=0.5;entryY=1;entryDx=0;entryDy=0;entryPerimeter=0;" edge="1" parent="910AtOY65dqWxyU9QAo8-129">
                    <mxGeometry width="50" height="50" relative="1" as="geometry">
                        <mxPoint x="623.0057534246575" y="220" as="sourcePoint"/>
                        <mxPoint x="623.0057534246575" y="160" as="targetPoint"/>
                    </mxGeometry>
                </mxCell>
                <mxCell id="910AtOY65dqWxyU9QAo8-214" value="slave A1" style="shape=cylinder3;whiteSpace=wrap;html=1;boundedLbl=1;backgroundOutline=1;size=15;" vertex="1" parent="910AtOY65dqWxyU9QAo8-129">
                    <mxGeometry x="779.4509589041096" y="70" width="87.26027397260275" height="50" as="geometry"/>
                </mxCell>
                <mxCell id="910AtOY65dqWxyU9QAo8-215" value="slave A2" style="shape=cylinder3;whiteSpace=wrap;html=1;boundedLbl=1;backgroundOutline=1;size=15;" vertex="1" parent="910AtOY65dqWxyU9QAo8-129">
                    <mxGeometry x="779.4509589041096" y="130" width="87.26027397260275" height="50" as="geometry"/>
                </mxCell>
                <mxCell id="910AtOY65dqWxyU9QAo8-216" value="" style="shape=partialRectangle;whiteSpace=wrap;html=1;bottom=1;right=1;left=1;top=0;fillColor=none;routingCenterX=-0.5;fontSize=14;direction=south;" vertex="1" parent="910AtOY65dqWxyU9QAo8-129">
                    <mxGeometry x="729.5879452054795" y="100" width="49.86301369863014" height="60" as="geometry"/>
                </mxCell>
                <mxCell id="910AtOY65dqWxyU9QAo8-217" value="slave B1" style="shape=cylinder3;whiteSpace=wrap;html=1;boundedLbl=1;backgroundOutline=1;size=15;" vertex="1" parent="910AtOY65dqWxyU9QAo8-129">
                    <mxGeometry x="779.4509589041096" y="190" width="87.26027397260275" height="50" as="geometry"/>
                </mxCell>
                <mxCell id="910AtOY65dqWxyU9QAo8-218" value="slave B2" style="shape=cylinder3;whiteSpace=wrap;html=1;boundedLbl=1;backgroundOutline=1;size=15;" vertex="1" parent="910AtOY65dqWxyU9QAo8-129">
                    <mxGeometry x="779.4509589041096" y="250" width="87.26027397260275" height="50" as="geometry"/>
                </mxCell>
                <mxCell id="910AtOY65dqWxyU9QAo8-219" value="" style="shape=partialRectangle;whiteSpace=wrap;html=1;bottom=1;right=1;left=1;top=0;fillColor=none;routingCenterX=-0.5;fontSize=14;direction=south;" vertex="1" parent="910AtOY65dqWxyU9QAo8-129">
                    <mxGeometry x="729.5879452054795" y="220" width="49.86301369863014" height="60" as="geometry"/>
                </mxCell>
                <mxCell id="910AtOY65dqWxyU9QAo8-220" value="" style="endArrow=classic;html=1;fontSize=14;exitX=1;exitY=0.5;exitDx=0;exitDy=0;exitPerimeter=0;entryX=0.5;entryY=0.95;entryDx=0;entryDy=0;entryPerimeter=0;" edge="1" parent="910AtOY65dqWxyU9QAo8-129" target="910AtOY65dqWxyU9QAo8-219">
                    <mxGeometry width="50" height="50" relative="1" as="geometry">
                        <mxPoint x="667.2591780821917" y="250" as="sourcePoint"/>
                        <mxPoint x="452.1906849315069" y="-1620" as="targetPoint"/>
                    </mxGeometry>
                </mxCell>
                <mxCell id="910AtOY65dqWxyU9QAo8-221" value="slave C1" style="shape=cylinder3;whiteSpace=wrap;html=1;boundedLbl=1;backgroundOutline=1;size=15;" vertex="1" parent="910AtOY65dqWxyU9QAo8-129">
                    <mxGeometry x="779.4509589041096" y="310" width="87.26027397260275" height="50" as="geometry"/>
                </mxCell>
                <mxCell id="910AtOY65dqWxyU9QAo8-222" value="slave C2" style="shape=cylinder3;whiteSpace=wrap;html=1;boundedLbl=1;backgroundOutline=1;size=15;" vertex="1" parent="910AtOY65dqWxyU9QAo8-129">
                    <mxGeometry x="779.4509589041096" y="370" width="87.26027397260275" height="50" as="geometry"/>
                </mxCell>
                <mxCell id="910AtOY65dqWxyU9QAo8-223" value="" style="shape=partialRectangle;whiteSpace=wrap;html=1;bottom=1;right=1;left=1;top=0;fillColor=none;routingCenterX=-0.5;fontSize=14;direction=south;" vertex="1" parent="910AtOY65dqWxyU9QAo8-129">
                    <mxGeometry x="729.5879452054795" y="340" width="49.86301369863014" height="60" as="geometry"/>
                </mxCell>
                <mxCell id="910AtOY65dqWxyU9QAo8-224" value="" style="endArrow=classic;html=1;fontSize=14;exitX=1;exitY=0.5;exitDx=0;exitDy=0;exitPerimeter=0;entryX=0.5;entryY=0.95;entryDx=0;entryDy=0;entryPerimeter=0;" edge="1" parent="910AtOY65dqWxyU9QAo8-129" target="910AtOY65dqWxyU9QAo8-223">
                    <mxGeometry width="50" height="50" relative="1" as="geometry">
                        <mxPoint x="667.2591780821917" y="370" as="sourcePoint"/>
                        <mxPoint x="452.1906849315069" y="-1500" as="targetPoint"/>
                    </mxGeometry>
                </mxCell>
                <mxCell id="910AtOY65dqWxyU9QAo8-228" value="" style="" vertex="1" collapsed="1" parent="910AtOY65dqWxyU9QAo8-129">
                    <mxGeometry x="550" y="470" width="337.53" height="380" as="geometry">
                        <mxRectangle x="480" y="680" width="200" height="200" as="alternateBounds"/>
                    </mxGeometry>
                </mxCell>
                <mxCell id="910AtOY65dqWxyU9QAo8-229" value="" style="endArrow=none;dashed=1;html=1;dashPattern=1 3;strokeWidth=2;fontSize=14;exitX=0;exitY=0.5;exitDx=0;exitDy=0;entryX=1;entryY=0.5;entryDx=0;entryDy=0;" edge="1" parent="910AtOY65dqWxyU9QAo8-129">
                    <mxGeometry width="50" height="50" relative="1" as="geometry">
                        <mxPoint x="698.7649999999999" y="655" as="sourcePoint"/>
                        <mxPoint x="698.7649999999999" y="655" as="targetPoint"/>
                    </mxGeometry>
                </mxCell>
                <mxCell id="910AtOY65dqWxyU9QAo8-230" value="master A" style="shape=cylinder3;whiteSpace=wrap;html=1;boundedLbl=1;backgroundOutline=1;size=15;" vertex="1" parent="910AtOY65dqWxyU9QAo8-129">
                    <mxGeometry x="579.998904109589" y="510" width="87.26027397260275" height="60" as="geometry"/>
                </mxCell>
                <mxCell id="910AtOY65dqWxyU9QAo8-231" value="" style="endArrow=classic;html=1;fontSize=14;exitX=1;exitY=0.5;exitDx=0;exitDy=0;exitPerimeter=0;entryX=0.5;entryY=0.95;entryDx=0;entryDy=0;entryPerimeter=0;" edge="1" parent="910AtOY65dqWxyU9QAo8-129" source="910AtOY65dqWxyU9QAo8-230" target="910AtOY65dqWxyU9QAo8-238">
                    <mxGeometry width="50" height="50" relative="1" as="geometry">
                        <mxPoint x="399.1769863013699" y="-2870" as="sourcePoint"/>
                        <mxPoint x="212.1906849315069" y="-3210" as="targetPoint"/>
                    </mxGeometry>
                </mxCell>
                <mxCell id="910AtOY65dqWxyU9QAo8-232" value="master B" style="shape=cylinder3;whiteSpace=wrap;html=1;boundedLbl=1;backgroundOutline=1;size=15;" vertex="1" parent="910AtOY65dqWxyU9QAo8-129">
                    <mxGeometry x="579.998904109589" y="630" width="87.26027397260275" height="60" as="geometry"/>
                </mxCell>
                <mxCell id="910AtOY65dqWxyU9QAo8-233" value="master C" style="shape=cylinder3;whiteSpace=wrap;html=1;boundedLbl=1;backgroundOutline=1;size=15;" vertex="1" parent="910AtOY65dqWxyU9QAo8-129">
                    <mxGeometry x="579.998904109589" y="750" width="87.26027397260275" height="60" as="geometry"/>
                </mxCell>
                <mxCell id="910AtOY65dqWxyU9QAo8-234" value="" style="endArrow=classic;startArrow=classic;html=1;fontSize=14;entryX=0.5;entryY=1;entryDx=0;entryDy=0;entryPerimeter=0;" edge="1" parent="910AtOY65dqWxyU9QAo8-129" target="910AtOY65dqWxyU9QAo8-232">
                    <mxGeometry width="50" height="50" relative="1" as="geometry">
                        <mxPoint x="623.6290410958904" y="750" as="sourcePoint"/>
                        <mxPoint x="461.50575342465754" y="-3020" as="targetPoint"/>
                    </mxGeometry>
                </mxCell>
                <mxCell id="910AtOY65dqWxyU9QAo8-235" value="" style="endArrow=classic;startArrow=classic;html=1;fontSize=14;entryX=0.5;entryY=1;entryDx=0;entryDy=0;entryPerimeter=0;" edge="1" parent="910AtOY65dqWxyU9QAo8-129">
                    <mxGeometry width="50" height="50" relative="1" as="geometry">
                        <mxPoint x="623.0057534246575" y="630" as="sourcePoint"/>
                        <mxPoint x="623.0057534246575" y="570" as="targetPoint"/>
                    </mxGeometry>
                </mxCell>
                <mxCell id="910AtOY65dqWxyU9QAo8-236" value="slave A1" style="shape=cylinder3;whiteSpace=wrap;html=1;boundedLbl=1;backgroundOutline=1;size=15;" vertex="1" parent="910AtOY65dqWxyU9QAo8-129">
                    <mxGeometry x="779.4509589041095" y="480" width="87.26027397260275" height="50" as="geometry"/>
                </mxCell>
                <mxCell id="910AtOY65dqWxyU9QAo8-237" value="slave A2" style="shape=cylinder3;whiteSpace=wrap;html=1;boundedLbl=1;backgroundOutline=1;size=15;" vertex="1" parent="910AtOY65dqWxyU9QAo8-129">
                    <mxGeometry x="779.4509589041095" y="540" width="87.26027397260275" height="50" as="geometry"/>
                </mxCell>
                <mxCell id="910AtOY65dqWxyU9QAo8-238" value="" style="shape=partialRectangle;whiteSpace=wrap;html=1;bottom=1;right=1;left=1;top=0;fillColor=none;routingCenterX=-0.5;fontSize=14;direction=south;" vertex="1" parent="910AtOY65dqWxyU9QAo8-129">
                    <mxGeometry x="729.5879452054795" y="510" width="49.86301369863014" height="60" as="geometry"/>
                </mxCell>
                <mxCell id="910AtOY65dqWxyU9QAo8-239" value="slave B1" style="shape=cylinder3;whiteSpace=wrap;html=1;boundedLbl=1;backgroundOutline=1;size=15;" vertex="1" parent="910AtOY65dqWxyU9QAo8-129">
                    <mxGeometry x="779.4509589041095" y="600" width="87.26027397260275" height="50" as="geometry"/>
                </mxCell>
                <mxCell id="910AtOY65dqWxyU9QAo8-240" value="slave B2" style="shape=cylinder3;whiteSpace=wrap;html=1;boundedLbl=1;backgroundOutline=1;size=15;" vertex="1" parent="910AtOY65dqWxyU9QAo8-129">
                    <mxGeometry x="779.4509589041095" y="660" width="87.26027397260275" height="50" as="geometry"/>
                </mxCell>
                <mxCell id="910AtOY65dqWxyU9QAo8-241" value="" style="shape=partialRectangle;whiteSpace=wrap;html=1;bottom=1;right=1;left=1;top=0;fillColor=none;routingCenterX=-0.5;fontSize=14;direction=south;" vertex="1" parent="910AtOY65dqWxyU9QAo8-129">
                    <mxGeometry x="729.5879452054795" y="630" width="49.86301369863014" height="60" as="geometry"/>
                </mxCell>
                <mxCell id="910AtOY65dqWxyU9QAo8-242" value="" style="endArrow=classic;html=1;fontSize=14;exitX=1;exitY=0.5;exitDx=0;exitDy=0;exitPerimeter=0;entryX=0.5;entryY=0.95;entryDx=0;entryDy=0;entryPerimeter=0;" edge="1" parent="910AtOY65dqWxyU9QAo8-129" target="910AtOY65dqWxyU9QAo8-241">
                    <mxGeometry width="50" height="50" relative="1" as="geometry">
                        <mxPoint x="667.2591780821917" y="660" as="sourcePoint"/>
                        <mxPoint x="212.1906849315069" y="-3090" as="targetPoint"/>
                    </mxGeometry>
                </mxCell>
                <mxCell id="910AtOY65dqWxyU9QAo8-243" value="slave C1" style="shape=cylinder3;whiteSpace=wrap;html=1;boundedLbl=1;backgroundOutline=1;size=15;" vertex="1" parent="910AtOY65dqWxyU9QAo8-129">
                    <mxGeometry x="779.4509589041095" y="720" width="87.26027397260275" height="50" as="geometry"/>
                </mxCell>
                <mxCell id="910AtOY65dqWxyU9QAo8-244" value="slave C2" style="shape=cylinder3;whiteSpace=wrap;html=1;boundedLbl=1;backgroundOutline=1;size=15;" vertex="1" parent="910AtOY65dqWxyU9QAo8-129">
                    <mxGeometry x="779.4509589041095" y="780" width="87.26027397260275" height="50" as="geometry"/>
                </mxCell>
                <mxCell id="910AtOY65dqWxyU9QAo8-245" value="" style="shape=partialRectangle;whiteSpace=wrap;html=1;bottom=1;right=1;left=1;top=0;fillColor=none;routingCenterX=-0.5;fontSize=14;direction=south;" vertex="1" parent="910AtOY65dqWxyU9QAo8-129">
                    <mxGeometry x="729.5879452054795" y="750" width="49.86301369863014" height="60" as="geometry"/>
                </mxCell>
                <mxCell id="910AtOY65dqWxyU9QAo8-246" value="" style="endArrow=classic;html=1;fontSize=14;exitX=1;exitY=0.5;exitDx=0;exitDy=0;exitPerimeter=0;entryX=0.5;entryY=0.95;entryDx=0;entryDy=0;entryPerimeter=0;" edge="1" parent="910AtOY65dqWxyU9QAo8-129" target="910AtOY65dqWxyU9QAo8-245">
                    <mxGeometry width="50" height="50" relative="1" as="geometry">
                        <mxPoint x="667.2591780821917" y="780" as="sourcePoint"/>
                        <mxPoint x="212.1906849315069" y="-2970" as="targetPoint"/>
                    </mxGeometry>
                </mxCell>
                <mxCell id="910AtOY65dqWxyU9QAo8-247" value="" style="" vertex="1" parent="910AtOY65dqWxyU9QAo8-129">
                    <mxGeometry x="140" y="470" width="320" height="380" as="geometry"/>
                </mxCell>
                <mxCell id="910AtOY65dqWxyU9QAo8-248" value="master 1" style="shape=cylinder3;whiteSpace=wrap;html=1;boundedLbl=1;backgroundOutline=1;size=15;" vertex="1" parent="910AtOY65dqWxyU9QAo8-247">
                    <mxGeometry x="34.212359208523594" y="54.28571428571427" width="77.56468797564688" height="81.42857142857142" as="geometry"/>
                </mxCell>
                <mxCell id="910AtOY65dqWxyU9QAo8-249" value="master 2" style="shape=cylinder3;whiteSpace=wrap;html=1;boundedLbl=1;backgroundOutline=1;size=15;" vertex="1" parent="910AtOY65dqWxyU9QAo8-247">
                    <mxGeometry x="34.212359208523594" y="162.85714285714283" width="77.56468797564688" height="81.42857142857142" as="geometry"/>
                </mxCell>
                <mxCell id="910AtOY65dqWxyU9QAo8-250" value="master 3" style="shape=cylinder3;whiteSpace=wrap;html=1;boundedLbl=1;backgroundOutline=1;size=15;" vertex="1" parent="910AtOY65dqWxyU9QAo8-247">
                    <mxGeometry x="34.212359208523594" y="271.4285714285714" width="77.56468797564688" height="81.42857142857142" as="geometry"/>
                </mxCell>
                <mxCell id="910AtOY65dqWxyU9QAo8-251" value="slave 1" style="shape=cylinder3;whiteSpace=wrap;html=1;boundedLbl=1;backgroundOutline=1;size=15;" vertex="1" parent="910AtOY65dqWxyU9QAo8-247">
                    <mxGeometry x="209.5545814307458" y="54.28571428571427" width="77.56468797564688" height="81.42857142857142" as="geometry"/>
                </mxCell>
                <mxCell id="910AtOY65dqWxyU9QAo8-252" value="slave 2" style="shape=cylinder3;whiteSpace=wrap;html=1;boundedLbl=1;backgroundOutline=1;size=15;" vertex="1" parent="910AtOY65dqWxyU9QAo8-247">
                    <mxGeometry x="209.5545814307458" y="162.85714285714283" width="77.56468797564688" height="81.42857142857142" as="geometry"/>
                </mxCell>
                <mxCell id="910AtOY65dqWxyU9QAo8-253" value="slave 3" style="shape=cylinder3;whiteSpace=wrap;html=1;boundedLbl=1;backgroundOutline=1;size=15;" vertex="1" parent="910AtOY65dqWxyU9QAo8-247">
                    <mxGeometry x="209.5545814307458" y="271.4285714285714" width="77.56468797564688" height="81.42857142857142" as="geometry"/>
                </mxCell>
                <mxCell id="910AtOY65dqWxyU9QAo8-254" value="" style="endArrow=classic;html=1;fontSize=18;exitX=1;exitY=0.5;exitDx=0;exitDy=0;exitPerimeter=0;entryX=0;entryY=0.5;entryDx=0;entryDy=0;entryPerimeter=0;" edge="1" parent="910AtOY65dqWxyU9QAo8-247" source="910AtOY65dqWxyU9QAo8-248" target="910AtOY65dqWxyU9QAo8-251">
                    <mxGeometry width="50" height="50" relative="1" as="geometry">
                        <mxPoint x="102.88888888888889" y="-67.85714285714285" as="sourcePoint"/>
                        <mxPoint x="147.33333333333331" y="-135.7142857142857" as="targetPoint"/>
                    </mxGeometry>
                </mxCell>
                <mxCell id="910AtOY65dqWxyU9QAo8-255" value="" style="endArrow=classic;html=1;fontSize=18;exitX=1;exitY=0.5;exitDx=0;exitDy=0;exitPerimeter=0;entryX=0;entryY=0.5;entryDx=0;entryDy=0;entryPerimeter=0;" edge="1" parent="910AtOY65dqWxyU9QAo8-247">
                    <mxGeometry width="50" height="50" relative="1" as="geometry">
                        <mxPoint x="111.77704718417044" y="202.89285714285714" as="sourcePoint"/>
                        <mxPoint x="209.55458143074588" y="202.89285714285714" as="targetPoint"/>
                        <Array as="points">
                            <mxPoint x="156.2222222222222" y="202.89285714285714"/>
                        </Array>
                    </mxGeometry>
                </mxCell>
                <mxCell id="910AtOY65dqWxyU9QAo8-256" value="" style="endArrow=classic;html=1;fontSize=18;exitX=1;exitY=0.5;exitDx=0;exitDy=0;exitPerimeter=0;entryX=0;entryY=0.5;entryDx=0;entryDy=0;entryPerimeter=0;" edge="1" parent="910AtOY65dqWxyU9QAo8-247">
                    <mxGeometry width="50" height="50" relative="1" as="geometry">
                        <mxPoint x="111.77704718417044" y="311.46428571428567" as="sourcePoint"/>
                        <mxPoint x="209.55458143074588" y="311.46428571428567" as="targetPoint"/>
                        <Array as="points">
                            <mxPoint x="156.2222222222222" y="311.46428571428567"/>
                        </Array>
                    </mxGeometry>
                </mxCell>
                <mxCell id="910AtOY65dqWxyU9QAo8-257" value="" style="endArrow=none;dashed=1;html=1;dashPattern=1 3;strokeWidth=2;fontSize=18;exitX=1;exitY=0.5;exitDx=0;exitDy=0;exitPerimeter=0;entryX=0;entryY=0.5;entryDx=0;entryDy=0;entryPerimeter=0;" edge="1" parent="910AtOY65dqWxyU9QAo8-247" source="910AtOY65dqWxyU9QAo8-248" target="910AtOY65dqWxyU9QAo8-252">
                    <mxGeometry width="50" height="50" relative="1" as="geometry">
                        <mxPoint x="102.88888888888889" y="-67.85714285714285" as="sourcePoint"/>
                        <mxPoint x="147.33333333333331" y="-135.7142857142857" as="targetPoint"/>
                    </mxGeometry>
                </mxCell>
                <mxCell id="910AtOY65dqWxyU9QAo8-258" value="" style="endArrow=none;dashed=1;html=1;dashPattern=1 3;strokeWidth=2;fontSize=18;exitX=1;exitY=0.5;exitDx=0;exitDy=0;exitPerimeter=0;entryX=0;entryY=0.5;entryDx=0;entryDy=0;entryPerimeter=0;" edge="1" parent="910AtOY65dqWxyU9QAo8-247" target="910AtOY65dqWxyU9QAo8-253">
                    <mxGeometry width="50" height="50" relative="1" as="geometry">
                        <mxPoint x="120.66593607305933" y="108.57142857142854" as="sourcePoint"/>
                        <mxPoint x="218.4434703196348" y="217.14285714285708" as="targetPoint"/>
                    </mxGeometry>
                </mxCell>
                <mxCell id="910AtOY65dqWxyU9QAo8-259" value="" style="endArrow=none;dashed=1;html=1;dashPattern=1 3;strokeWidth=2;fontSize=18;exitX=1;exitY=0.5;exitDx=0;exitDy=0;exitPerimeter=0;entryX=0;entryY=0.5;entryDx=0;entryDy=0;entryPerimeter=0;" edge="1" parent="910AtOY65dqWxyU9QAo8-247">
                    <mxGeometry width="50" height="50" relative="1" as="geometry">
                        <mxPoint x="111.77704718417044" y="203.57142857142853" as="sourcePoint"/>
                        <mxPoint x="209.55458143074588" y="312.1428571428571" as="targetPoint"/>
                    </mxGeometry>
                </mxCell>
                <mxCell id="910AtOY65dqWxyU9QAo8-260" value="" style="endArrow=none;dashed=1;html=1;dashPattern=1 3;strokeWidth=2;fontSize=18;exitX=1;exitY=0.5;exitDx=0;exitDy=0;exitPerimeter=0;entryX=1;entryY=0.5;entryDx=0;entryDy=0;entryPerimeter=0;" edge="1" parent="910AtOY65dqWxyU9QAo8-247" target="910AtOY65dqWxyU9QAo8-249">
                    <mxGeometry width="50" height="50" relative="1" as="geometry">
                        <mxPoint x="209.5548249619482" y="95" as="sourcePoint"/>
                        <mxPoint x="307.33235920852366" y="203.57142857142853" as="targetPoint"/>
                    </mxGeometry>
                </mxCell>
                <mxCell id="910AtOY65dqWxyU9QAo8-261" value="" style="endArrow=none;dashed=1;html=1;dashPattern=1 3;strokeWidth=2;fontSize=18;exitX=1;exitY=0.5;exitDx=0;exitDy=0;exitPerimeter=0;entryX=1;entryY=0.5;entryDx=0;entryDy=0;entryPerimeter=0;" edge="1" parent="910AtOY65dqWxyU9QAo8-247">
                    <mxGeometry width="50" height="50" relative="1" as="geometry">
                        <mxPoint x="209.5548249619484" y="203.57142857142853" as="sourcePoint"/>
                        <mxPoint x="111.77704718417044" y="312.1428571428571" as="targetPoint"/>
                    </mxGeometry>
                </mxCell>
                <mxCell id="910AtOY65dqWxyU9QAo8-262" value="" style="endArrow=none;dashed=1;html=1;dashPattern=1 3;strokeWidth=2;fontSize=18;exitX=0;exitY=0;exitDx=0;exitDy=37.5;exitPerimeter=0;" edge="1" parent="910AtOY65dqWxyU9QAo8-247" source="910AtOY65dqWxyU9QAo8-251">
                    <mxGeometry width="50" height="50" relative="1" as="geometry">
                        <mxPoint x="227.33260273972618" y="122.14285714285712" as="sourcePoint"/>
                        <mxPoint x="111.77777777777777" y="312.1428571428571" as="targetPoint"/>
                    </mxGeometry>
                </mxCell>
                <mxCell id="910AtOY65dqWxyU9QAo8-263" value="&lt;font style=&quot;font-size: 14px;&quot;&gt;КЭШ&lt;/font&gt;" style="text;html=1;strokeColor=none;fillColor=none;align=center;verticalAlign=middle;whiteSpace=wrap;rounded=0;fontSize=18;" vertex="1" parent="910AtOY65dqWxyU9QAo8-247">
                    <mxGeometry x="17.77777777777778" y="11.875" width="53.33333333333333" height="35.625" as="geometry"/>
                </mxCell>
                <mxCell id="910AtOY65dqWxyU9QAo8-264" value="" style="" vertex="1" parent="910AtOY65dqWxyU9QAo8-129">
                    <mxGeometry x="140" y="60" width="320" height="370" as="geometry"/>
                </mxCell>
                <mxCell id="910AtOY65dqWxyU9QAo8-265" value="master 1" style="shape=cylinder3;whiteSpace=wrap;html=1;boundedLbl=1;backgroundOutline=1;size=15;" vertex="1" parent="910AtOY65dqWxyU9QAo8-264">
                    <mxGeometry x="34.212359208523594" y="52.85714285714285" width="77.56468797564689" height="79.28571428571428" as="geometry"/>
                </mxCell>
                <mxCell id="910AtOY65dqWxyU9QAo8-266" value="master 2" style="shape=cylinder3;whiteSpace=wrap;html=1;boundedLbl=1;backgroundOutline=1;size=15;" vertex="1" parent="910AtOY65dqWxyU9QAo8-264">
                    <mxGeometry x="34.212359208523594" y="158.57142857142856" width="77.56468797564689" height="79.28571428571428" as="geometry"/>
                </mxCell>
                <mxCell id="910AtOY65dqWxyU9QAo8-267" value="master 3" style="shape=cylinder3;whiteSpace=wrap;html=1;boundedLbl=1;backgroundOutline=1;size=15;" vertex="1" parent="910AtOY65dqWxyU9QAo8-264">
                    <mxGeometry x="34.212359208523594" y="264.2857142857142" width="77.56468797564689" height="79.28571428571428" as="geometry"/>
                </mxCell>
                <mxCell id="910AtOY65dqWxyU9QAo8-268" value="slave 1" style="shape=cylinder3;whiteSpace=wrap;html=1;boundedLbl=1;backgroundOutline=1;size=15;" vertex="1" parent="910AtOY65dqWxyU9QAo8-264">
                    <mxGeometry x="209.55458143074583" y="52.85714285714285" width="77.56468797564689" height="79.28571428571428" as="geometry"/>
                </mxCell>
                <mxCell id="910AtOY65dqWxyU9QAo8-269" value="slave 2" style="shape=cylinder3;whiteSpace=wrap;html=1;boundedLbl=1;backgroundOutline=1;size=15;" vertex="1" parent="910AtOY65dqWxyU9QAo8-264">
                    <mxGeometry x="209.55458143074583" y="158.57142857142856" width="77.56468797564689" height="79.28571428571428" as="geometry"/>
                </mxCell>
                <mxCell id="910AtOY65dqWxyU9QAo8-270" value="slave 3" style="shape=cylinder3;whiteSpace=wrap;html=1;boundedLbl=1;backgroundOutline=1;size=15;" vertex="1" parent="910AtOY65dqWxyU9QAo8-264">
                    <mxGeometry x="209.55458143074583" y="264.2857142857142" width="77.56468797564689" height="79.28571428571428" as="geometry"/>
                </mxCell>
                <mxCell id="910AtOY65dqWxyU9QAo8-271" value="" style="endArrow=classic;html=1;fontSize=18;exitX=1;exitY=0.5;exitDx=0;exitDy=0;exitPerimeter=0;entryX=0;entryY=0.5;entryDx=0;entryDy=0;entryPerimeter=0;" edge="1" parent="910AtOY65dqWxyU9QAo8-264" source="910AtOY65dqWxyU9QAo8-265" target="910AtOY65dqWxyU9QAo8-268">
                    <mxGeometry width="50" height="50" relative="1" as="geometry">
                        <mxPoint x="102.88888888888889" y="-66.07142857142856" as="sourcePoint"/>
                        <mxPoint x="147.33333333333334" y="-132.1428571428571" as="targetPoint"/>
                    </mxGeometry>
                </mxCell>
                <mxCell id="910AtOY65dqWxyU9QAo8-272" value="" style="endArrow=classic;html=1;fontSize=18;exitX=1;exitY=0.5;exitDx=0;exitDy=0;exitPerimeter=0;entryX=0;entryY=0.5;entryDx=0;entryDy=0;entryPerimeter=0;" edge="1" parent="910AtOY65dqWxyU9QAo8-264">
                    <mxGeometry width="50" height="50" relative="1" as="geometry">
                        <mxPoint x="111.77704718417044" y="197.55357142857142" as="sourcePoint"/>
                        <mxPoint x="209.55458143074588" y="197.55357142857142" as="targetPoint"/>
                        <Array as="points">
                            <mxPoint x="156.22222222222223" y="197.55357142857142"/>
                        </Array>
                    </mxGeometry>
                </mxCell>
                <mxCell id="910AtOY65dqWxyU9QAo8-273" value="" style="endArrow=classic;html=1;fontSize=18;exitX=1;exitY=0.5;exitDx=0;exitDy=0;exitPerimeter=0;entryX=0;entryY=0.5;entryDx=0;entryDy=0;entryPerimeter=0;" edge="1" parent="910AtOY65dqWxyU9QAo8-264">
                    <mxGeometry width="50" height="50" relative="1" as="geometry">
                        <mxPoint x="111.77704718417044" y="303.2678571428571" as="sourcePoint"/>
                        <mxPoint x="209.55458143074588" y="303.2678571428571" as="targetPoint"/>
                        <Array as="points">
                            <mxPoint x="156.22222222222223" y="303.2678571428571"/>
                        </Array>
                    </mxGeometry>
                </mxCell>
                <mxCell id="910AtOY65dqWxyU9QAo8-274" value="" style="endArrow=none;dashed=1;html=1;dashPattern=1 3;strokeWidth=2;fontSize=18;exitX=1;exitY=0.5;exitDx=0;exitDy=0;exitPerimeter=0;entryX=0;entryY=0.5;entryDx=0;entryDy=0;entryPerimeter=0;" edge="1" parent="910AtOY65dqWxyU9QAo8-264" source="910AtOY65dqWxyU9QAo8-265" target="910AtOY65dqWxyU9QAo8-269">
                    <mxGeometry width="50" height="50" relative="1" as="geometry">
                        <mxPoint x="102.88888888888889" y="-66.07142857142856" as="sourcePoint"/>
                        <mxPoint x="147.33333333333334" y="-132.1428571428571" as="targetPoint"/>
                    </mxGeometry>
                </mxCell>
                <mxCell id="910AtOY65dqWxyU9QAo8-275" value="" style="endArrow=none;dashed=1;html=1;dashPattern=1 3;strokeWidth=2;fontSize=18;exitX=1;exitY=0.5;exitDx=0;exitDy=0;exitPerimeter=0;entryX=0;entryY=0.5;entryDx=0;entryDy=0;entryPerimeter=0;" edge="1" parent="910AtOY65dqWxyU9QAo8-264" target="910AtOY65dqWxyU9QAo8-270">
                    <mxGeometry width="50" height="50" relative="1" as="geometry">
                        <mxPoint x="120.66593607305933" y="105.7142857142857" as="sourcePoint"/>
                        <mxPoint x="218.4434703196348" y="211.4285714285714" as="targetPoint"/>
                    </mxGeometry>
                </mxCell>
                <mxCell id="910AtOY65dqWxyU9QAo8-276" value="" style="endArrow=none;dashed=1;html=1;dashPattern=1 3;strokeWidth=2;fontSize=18;exitX=1;exitY=0.5;exitDx=0;exitDy=0;exitPerimeter=0;entryX=0;entryY=0.5;entryDx=0;entryDy=0;entryPerimeter=0;" edge="1" parent="910AtOY65dqWxyU9QAo8-264">
                    <mxGeometry width="50" height="50" relative="1" as="geometry">
                        <mxPoint x="111.77704718417044" y="198.21428571428567" as="sourcePoint"/>
                        <mxPoint x="209.55458143074588" y="303.92857142857133" as="targetPoint"/>
                    </mxGeometry>
                </mxCell>
                <mxCell id="910AtOY65dqWxyU9QAo8-277" value="" style="endArrow=none;dashed=1;html=1;dashPattern=1 3;strokeWidth=2;fontSize=18;exitX=1;exitY=0.5;exitDx=0;exitDy=0;exitPerimeter=0;entryX=1;entryY=0.5;entryDx=0;entryDy=0;entryPerimeter=0;" edge="1" parent="910AtOY65dqWxyU9QAo8-264" target="910AtOY65dqWxyU9QAo8-266">
                    <mxGeometry width="50" height="50" relative="1" as="geometry">
                        <mxPoint x="209.5548249619482" y="92.49999999999999" as="sourcePoint"/>
                        <mxPoint x="307.33235920852366" y="198.21428571428567" as="targetPoint"/>
                    </mxGeometry>
                </mxCell>
                <mxCell id="910AtOY65dqWxyU9QAo8-278" value="" style="endArrow=none;dashed=1;html=1;dashPattern=1 3;strokeWidth=2;fontSize=18;exitX=1;exitY=0.5;exitDx=0;exitDy=0;exitPerimeter=0;entryX=1;entryY=0.5;entryDx=0;entryDy=0;entryPerimeter=0;" edge="1" parent="910AtOY65dqWxyU9QAo8-264">
                    <mxGeometry width="50" height="50" relative="1" as="geometry">
                        <mxPoint x="209.55482496194844" y="198.21428571428567" as="sourcePoint"/>
                        <mxPoint x="111.77704718417044" y="303.92857142857133" as="targetPoint"/>
                    </mxGeometry>
                </mxCell>
                <mxCell id="910AtOY65dqWxyU9QAo8-279" value="" style="endArrow=none;dashed=1;html=1;dashPattern=1 3;strokeWidth=2;fontSize=18;exitX=0;exitY=0;exitDx=0;exitDy=37.5;exitPerimeter=0;" edge="1" parent="910AtOY65dqWxyU9QAo8-264" source="910AtOY65dqWxyU9QAo8-268">
                    <mxGeometry width="50" height="50" relative="1" as="geometry">
                        <mxPoint x="227.33260273972618" y="118.92857142857142" as="sourcePoint"/>
                        <mxPoint x="111.77777777777777" y="303.92857142857133" as="targetPoint"/>
                    </mxGeometry>
                </mxCell>
                <mxCell id="910AtOY65dqWxyU9QAo8-280" value="&lt;font style=&quot;font-size: 14px;&quot;&gt;КЭШ&lt;/font&gt;" style="text;html=1;strokeColor=none;fillColor=none;align=center;verticalAlign=middle;whiteSpace=wrap;rounded=0;fontSize=18;" vertex="1" parent="910AtOY65dqWxyU9QAo8-264">
                    <mxGeometry x="17.77777777777778" y="11.562499999999998" width="53.333333333333336" height="34.6875" as="geometry"/>
                </mxCell>
                <mxCell id="910AtOY65dqWxyU9QAo8-170" value="Шард1" style="text;html=1;strokeColor=none;fillColor=none;align=center;verticalAlign=middle;whiteSpace=wrap;rounded=0;fontSize=14;" vertex="1" parent="910AtOY65dqWxyU9QAo8-129">
                    <mxGeometry x="49.19999999999999" y="60" width="60" height="30" as="geometry"/>
                </mxCell>
                <mxCell id="910AtOY65dqWxyU9QAo8-169" value="Шард2" style="text;html=1;strokeColor=none;fillColor=none;align=center;verticalAlign=middle;whiteSpace=wrap;rounded=0;fontSize=14;" vertex="1" parent="910AtOY65dqWxyU9QAo8-129">
                    <mxGeometry x="44.19999999999999" y="470" width="70" height="30" as="geometry"/>
                </mxCell>
                <mxCell id="910AtOY65dqWxyU9QAo8-282" value="" style="endArrow=classic;startArrow=classic;html=1;fontSize=14;entryX=-0.003;entryY=0.605;entryDx=0;entryDy=0;entryPerimeter=0;exitX=1.009;exitY=0.603;exitDx=0;exitDy=0;exitPerimeter=0;" edge="1" parent="910AtOY65dqWxyU9QAo8-129" source="910AtOY65dqWxyU9QAo8-264" target="910AtOY65dqWxyU9QAo8-132">
                    <mxGeometry width="50" height="50" relative="1" as="geometry">
                        <mxPoint x="470" y="284" as="sourcePoint"/>
                        <mxPoint x="330" y="200" as="targetPoint"/>
                    </mxGeometry>
                </mxCell>
                <mxCell id="910AtOY65dqWxyU9QAo8-283" value="" style="endArrow=classic;startArrow=classic;html=1;fontSize=14;entryX=-0.003;entryY=0.605;entryDx=0;entryDy=0;entryPerimeter=0;exitX=1.009;exitY=0.603;exitDx=0;exitDy=0;exitPerimeter=0;" edge="1" parent="910AtOY65dqWxyU9QAo8-129">
                    <mxGeometry width="50" height="50" relative="1" as="geometry">
                        <mxPoint x="460.0000000000001" y="670" as="sourcePoint"/>
                        <mxPoint x="546.1374099999999" y="670.7399999999998" as="targetPoint"/>
                    </mxGeometry>
                </mxCell>
                <mxCell id="910AtOY65dqWxyU9QAo8-281" value="" style="endArrow=classic;html=1;fontSize=14;exitX=1.033;exitY=0.567;exitDx=0;exitDy=0;exitPerimeter=0;entryX=-0.003;entryY=0.51;entryDx=0;entryDy=0;entryPerimeter=0;" edge="1" parent="910AtOY65dqWxyU9QAo8-127" source="910AtOY65dqWxyU9QAo8-128" target="910AtOY65dqWxyU9QAo8-129">
                    <mxGeometry width="50" height="50" relative="1" as="geometry">
                        <mxPoint x="480" y="380" as="sourcePoint"/>
                        <mxPoint x="530" y="330" as="targetPoint"/>
                    </mxGeometry>
                </mxCell>
                <mxCell id="910AtOY65dqWxyU9QAo8-187" value="" style="" vertex="1" parent="1">
                    <mxGeometry x="120" y="2880" width="360" height="320" as="geometry"/>
                </mxCell>
                <mxCell id="910AtOY65dqWxyU9QAo8-171" value="master 1" style="shape=cylinder3;whiteSpace=wrap;html=1;boundedLbl=1;backgroundOutline=1;size=15;" vertex="1" parent="910AtOY65dqWxyU9QAo8-187">
                    <mxGeometry x="38.48890410958904" y="45.71428571428571" width="87.26027397260275" height="68.57142857142857" as="geometry"/>
                </mxCell>
                <mxCell id="910AtOY65dqWxyU9QAo8-172" value="master 2" style="shape=cylinder3;whiteSpace=wrap;html=1;boundedLbl=1;backgroundOutline=1;size=15;" vertex="1" parent="910AtOY65dqWxyU9QAo8-187">
                    <mxGeometry x="38.48890410958904" y="137.14285714285714" width="87.26027397260275" height="68.57142857142857" as="geometry"/>
                </mxCell>
                <mxCell id="910AtOY65dqWxyU9QAo8-173" value="master 3" style="shape=cylinder3;whiteSpace=wrap;html=1;boundedLbl=1;backgroundOutline=1;size=15;" vertex="1" parent="910AtOY65dqWxyU9QAo8-187">
                    <mxGeometry x="38.48890410958904" y="228.57142857142856" width="87.26027397260275" height="68.57142857142857" as="geometry"/>
                </mxCell>
                <mxCell id="910AtOY65dqWxyU9QAo8-174" value="slave 1" style="shape=cylinder3;whiteSpace=wrap;html=1;boundedLbl=1;backgroundOutline=1;size=15;" vertex="1" parent="910AtOY65dqWxyU9QAo8-187">
                    <mxGeometry x="235.74890410958903" y="45.71428571428571" width="87.26027397260275" height="68.57142857142857" as="geometry"/>
                </mxCell>
                <mxCell id="910AtOY65dqWxyU9QAo8-175" value="slave 2" style="shape=cylinder3;whiteSpace=wrap;html=1;boundedLbl=1;backgroundOutline=1;size=15;" vertex="1" parent="910AtOY65dqWxyU9QAo8-187">
                    <mxGeometry x="235.74890410958903" y="137.14285714285714" width="87.26027397260275" height="68.57142857142857" as="geometry"/>
                </mxCell>
                <mxCell id="910AtOY65dqWxyU9QAo8-176" value="slave 3" style="shape=cylinder3;whiteSpace=wrap;html=1;boundedLbl=1;backgroundOutline=1;size=15;" vertex="1" parent="910AtOY65dqWxyU9QAo8-187">
                    <mxGeometry x="235.74890410958903" y="228.57142857142856" width="87.26027397260275" height="68.57142857142857" as="geometry"/>
                </mxCell>
                <mxCell id="910AtOY65dqWxyU9QAo8-177" value="" style="endArrow=classic;html=1;fontSize=18;exitX=1;exitY=0.5;exitDx=0;exitDy=0;exitPerimeter=0;entryX=0;entryY=0.5;entryDx=0;entryDy=0;entryPerimeter=0;" edge="1" parent="910AtOY65dqWxyU9QAo8-187" source="910AtOY65dqWxyU9QAo8-171" target="910AtOY65dqWxyU9QAo8-174">
                    <mxGeometry width="50" height="50" relative="1" as="geometry">
                        <mxPoint x="115.75" y="-57.14285714285714" as="sourcePoint"/>
                        <mxPoint x="165.75" y="-114.28571428571428" as="targetPoint"/>
                    </mxGeometry>
                </mxCell>
                <mxCell id="910AtOY65dqWxyU9QAo8-178" value="" style="endArrow=classic;html=1;fontSize=18;exitX=1;exitY=0.5;exitDx=0;exitDy=0;exitPerimeter=0;entryX=0;entryY=0.5;entryDx=0;entryDy=0;entryPerimeter=0;" edge="1" parent="910AtOY65dqWxyU9QAo8-187">
                    <mxGeometry width="50" height="50" relative="1" as="geometry">
                        <mxPoint x="125.74917808219175" y="170.85714285714286" as="sourcePoint"/>
                        <mxPoint x="235.74890410958915" y="170.85714285714286" as="targetPoint"/>
                        <Array as="points">
                            <mxPoint x="175.75" y="170.85714285714286"/>
                        </Array>
                    </mxGeometry>
                </mxCell>
                <mxCell id="910AtOY65dqWxyU9QAo8-179" value="" style="endArrow=classic;html=1;fontSize=18;exitX=1;exitY=0.5;exitDx=0;exitDy=0;exitPerimeter=0;entryX=0;entryY=0.5;entryDx=0;entryDy=0;entryPerimeter=0;" edge="1" parent="910AtOY65dqWxyU9QAo8-187">
                    <mxGeometry width="50" height="50" relative="1" as="geometry">
                        <mxPoint x="125.74917808219175" y="262.2857142857143" as="sourcePoint"/>
                        <mxPoint x="235.74890410958915" y="262.2857142857143" as="targetPoint"/>
                        <Array as="points">
                            <mxPoint x="175.75" y="262.2857142857143"/>
                        </Array>
                    </mxGeometry>
                </mxCell>
                <mxCell id="910AtOY65dqWxyU9QAo8-180" value="" style="endArrow=none;dashed=1;html=1;dashPattern=1 3;strokeWidth=2;fontSize=18;exitX=1;exitY=0.5;exitDx=0;exitDy=0;exitPerimeter=0;entryX=0;entryY=0.5;entryDx=0;entryDy=0;entryPerimeter=0;" edge="1" parent="910AtOY65dqWxyU9QAo8-187" source="910AtOY65dqWxyU9QAo8-171" target="910AtOY65dqWxyU9QAo8-175">
                    <mxGeometry width="50" height="50" relative="1" as="geometry">
                        <mxPoint x="115.75" y="-57.14285714285714" as="sourcePoint"/>
                        <mxPoint x="165.75" y="-114.28571428571428" as="targetPoint"/>
                    </mxGeometry>
                </mxCell>
                <mxCell id="910AtOY65dqWxyU9QAo8-181" value="" style="endArrow=none;dashed=1;html=1;dashPattern=1 3;strokeWidth=2;fontSize=18;exitX=1;exitY=0.5;exitDx=0;exitDy=0;exitPerimeter=0;entryX=0;entryY=0.5;entryDx=0;entryDy=0;entryPerimeter=0;" edge="1" parent="910AtOY65dqWxyU9QAo8-187" target="910AtOY65dqWxyU9QAo8-176">
                    <mxGeometry width="50" height="50" relative="1" as="geometry">
                        <mxPoint x="135.74917808219175" y="91.42857142857142" as="sourcePoint"/>
                        <mxPoint x="245.74890410958915" y="182.85714285714283" as="targetPoint"/>
                    </mxGeometry>
                </mxCell>
                <mxCell id="910AtOY65dqWxyU9QAo8-182" value="" style="endArrow=none;dashed=1;html=1;dashPattern=1 3;strokeWidth=2;fontSize=18;exitX=1;exitY=0.5;exitDx=0;exitDy=0;exitPerimeter=0;entryX=0;entryY=0.5;entryDx=0;entryDy=0;entryPerimeter=0;" edge="1" parent="910AtOY65dqWxyU9QAo8-187">
                    <mxGeometry width="50" height="50" relative="1" as="geometry">
                        <mxPoint x="125.74917808219175" y="171.42857142857142" as="sourcePoint"/>
                        <mxPoint x="235.74890410958915" y="262.85714285714283" as="targetPoint"/>
                    </mxGeometry>
                </mxCell>
                <mxCell id="910AtOY65dqWxyU9QAo8-183" value="" style="endArrow=none;dashed=1;html=1;dashPattern=1 3;strokeWidth=2;fontSize=18;exitX=1;exitY=0.5;exitDx=0;exitDy=0;exitPerimeter=0;entryX=1;entryY=0.5;entryDx=0;entryDy=0;entryPerimeter=0;" edge="1" parent="910AtOY65dqWxyU9QAo8-187" target="910AtOY65dqWxyU9QAo8-172">
                    <mxGeometry width="50" height="50" relative="1" as="geometry">
                        <mxPoint x="235.74917808219175" y="80" as="sourcePoint"/>
                        <mxPoint x="345.74890410958915" y="171.42857142857142" as="targetPoint"/>
                    </mxGeometry>
                </mxCell>
                <mxCell id="910AtOY65dqWxyU9QAo8-185" value="" style="endArrow=none;dashed=1;html=1;dashPattern=1 3;strokeWidth=2;fontSize=18;exitX=1;exitY=0.5;exitDx=0;exitDy=0;exitPerimeter=0;entryX=1;entryY=0.5;entryDx=0;entryDy=0;entryPerimeter=0;" edge="1" parent="910AtOY65dqWxyU9QAo8-187">
                    <mxGeometry width="50" height="50" relative="1" as="geometry">
                        <mxPoint x="235.74917808219197" y="171.42857142857142" as="sourcePoint"/>
                        <mxPoint x="125.74917808219175" y="262.85714285714283" as="targetPoint"/>
                    </mxGeometry>
                </mxCell>
                <mxCell id="910AtOY65dqWxyU9QAo8-186" value="" style="endArrow=none;dashed=1;html=1;dashPattern=1 3;strokeWidth=2;fontSize=18;exitX=0;exitY=0;exitDx=0;exitDy=37.5;exitPerimeter=0;" edge="1" parent="910AtOY65dqWxyU9QAo8-187" source="910AtOY65dqWxyU9QAo8-174">
                    <mxGeometry width="50" height="50" relative="1" as="geometry">
                        <mxPoint x="255.74917808219197" y="102.85714285714285" as="sourcePoint"/>
                        <mxPoint x="125.75" y="262.85714285714283" as="targetPoint"/>
                    </mxGeometry>
                </mxCell>
                <mxCell id="910AtOY65dqWxyU9QAo8-188" value="&lt;font style=&quot;font-size: 14px;&quot;&gt;КЭШ&lt;/font&gt;" style="text;html=1;strokeColor=none;fillColor=none;align=center;verticalAlign=middle;whiteSpace=wrap;rounded=0;fontSize=18;" vertex="1" parent="910AtOY65dqWxyU9QAo8-187">
                    <mxGeometry x="20" y="10" width="60" height="30" as="geometry"/>
                </mxCell>
                <mxCell id="910AtOY65dqWxyU9QAo8-191" value="master A" style="shape=cylinder3;whiteSpace=wrap;html=1;boundedLbl=1;backgroundOutline=1;size=15;" vertex="1" parent="1">
                    <mxGeometry x="729.998904109589" y="2910" width="87.26027397260275" height="60" as="geometry"/>
                </mxCell>
                <mxCell id="910AtOY65dqWxyU9QAo8-192" value="" style="endArrow=classic;html=1;fontSize=14;exitX=1;exitY=0.5;exitDx=0;exitDy=0;exitPerimeter=0;entryX=0.5;entryY=0.95;entryDx=0;entryDy=0;entryPerimeter=0;" edge="1" parent="1" source="910AtOY65dqWxyU9QAo8-191" target="910AtOY65dqWxyU9QAo8-199">
                    <mxGeometry width="50" height="50" relative="1" as="geometry">
                        <mxPoint x="789.1769863013699" y="1410" as="sourcePoint"/>
                        <mxPoint x="602.1906849315069" y="1070" as="targetPoint"/>
                    </mxGeometry>
                </mxCell>
                <mxCell id="910AtOY65dqWxyU9QAo8-193" value="master B" style="shape=cylinder3;whiteSpace=wrap;html=1;boundedLbl=1;backgroundOutline=1;size=15;" vertex="1" parent="1">
                    <mxGeometry x="729.998904109589" y="3030" width="87.26027397260275" height="60" as="geometry"/>
                </mxCell>
                <mxCell id="910AtOY65dqWxyU9QAo8-194" value="master C" style="shape=cylinder3;whiteSpace=wrap;html=1;boundedLbl=1;backgroundOutline=1;size=15;" vertex="1" parent="1">
                    <mxGeometry x="729.998904109589" y="3150" width="87.26027397260275" height="60" as="geometry"/>
                </mxCell>
                <mxCell id="910AtOY65dqWxyU9QAo8-195" value="" style="endArrow=classic;startArrow=classic;html=1;fontSize=14;entryX=0.5;entryY=1;entryDx=0;entryDy=0;entryPerimeter=0;" edge="1" parent="1" target="910AtOY65dqWxyU9QAo8-193">
                    <mxGeometry width="50" height="50" relative="1" as="geometry">
                        <mxPoint x="773.6290410958904" y="3150" as="sourcePoint"/>
                        <mxPoint x="851.5057534246575" y="1260" as="targetPoint"/>
                    </mxGeometry>
                </mxCell>
                <mxCell id="910AtOY65dqWxyU9QAo8-196" value="" style="endArrow=classic;startArrow=classic;html=1;fontSize=14;entryX=0.5;entryY=1;entryDx=0;entryDy=0;entryPerimeter=0;" edge="1" parent="1">
                    <mxGeometry width="50" height="50" relative="1" as="geometry">
                        <mxPoint x="773.0057534246575" y="3030" as="sourcePoint"/>
                        <mxPoint x="773.0057534246575" y="2970" as="targetPoint"/>
                    </mxGeometry>
                </mxCell>
                <mxCell id="910AtOY65dqWxyU9QAo8-197" value="slave A1" style="shape=cylinder3;whiteSpace=wrap;html=1;boundedLbl=1;backgroundOutline=1;size=15;" vertex="1" parent="1">
                    <mxGeometry x="929.4509589041096" y="2880" width="87.26027397260275" height="50" as="geometry"/>
                </mxCell>
                <mxCell id="910AtOY65dqWxyU9QAo8-198" value="slave A2" style="shape=cylinder3;whiteSpace=wrap;html=1;boundedLbl=1;backgroundOutline=1;size=15;" vertex="1" parent="1">
                    <mxGeometry x="929.4509589041096" y="2940" width="87.26027397260275" height="50" as="geometry"/>
                </mxCell>
                <mxCell id="910AtOY65dqWxyU9QAo8-199" value="" style="shape=partialRectangle;whiteSpace=wrap;html=1;bottom=1;right=1;left=1;top=0;fillColor=none;routingCenterX=-0.5;fontSize=14;direction=south;" vertex="1" parent="1">
                    <mxGeometry x="879.5879452054795" y="2910" width="49.86301369863014" height="60" as="geometry"/>
                </mxCell>
                <mxCell id="910AtOY65dqWxyU9QAo8-200" value="slave B1" style="shape=cylinder3;whiteSpace=wrap;html=1;boundedLbl=1;backgroundOutline=1;size=15;" vertex="1" parent="1">
                    <mxGeometry x="929.4509589041096" y="3000" width="87.26027397260275" height="50" as="geometry"/>
                </mxCell>
                <mxCell id="910AtOY65dqWxyU9QAo8-201" value="slave B2" style="shape=cylinder3;whiteSpace=wrap;html=1;boundedLbl=1;backgroundOutline=1;size=15;" vertex="1" parent="1">
                    <mxGeometry x="929.4509589041096" y="3060" width="87.26027397260275" height="50" as="geometry"/>
                </mxCell>
                <mxCell id="910AtOY65dqWxyU9QAo8-202" value="" style="shape=partialRectangle;whiteSpace=wrap;html=1;bottom=1;right=1;left=1;top=0;fillColor=none;routingCenterX=-0.5;fontSize=14;direction=south;" vertex="1" parent="1">
                    <mxGeometry x="879.5879452054795" y="3030" width="49.86301369863014" height="60" as="geometry"/>
                </mxCell>
                <mxCell id="910AtOY65dqWxyU9QAo8-203" value="" style="endArrow=classic;html=1;fontSize=14;exitX=1;exitY=0.5;exitDx=0;exitDy=0;exitPerimeter=0;entryX=0.5;entryY=0.95;entryDx=0;entryDy=0;entryPerimeter=0;" edge="1" parent="1" target="910AtOY65dqWxyU9QAo8-202">
                    <mxGeometry width="50" height="50" relative="1" as="geometry">
                        <mxPoint x="817.2591780821917" y="3060" as="sourcePoint"/>
                        <mxPoint x="602.1906849315069" y="1190" as="targetPoint"/>
                    </mxGeometry>
                </mxCell>
                <mxCell id="910AtOY65dqWxyU9QAo8-204" value="slave C1" style="shape=cylinder3;whiteSpace=wrap;html=1;boundedLbl=1;backgroundOutline=1;size=15;" vertex="1" parent="1">
                    <mxGeometry x="929.4509589041096" y="3120" width="87.26027397260275" height="50" as="geometry"/>
                </mxCell>
                <mxCell id="910AtOY65dqWxyU9QAo8-205" value="slave C2" style="shape=cylinder3;whiteSpace=wrap;html=1;boundedLbl=1;backgroundOutline=1;size=15;" vertex="1" parent="1">
                    <mxGeometry x="929.4509589041096" y="3180" width="87.26027397260275" height="50" as="geometry"/>
                </mxCell>
                <mxCell id="910AtOY65dqWxyU9QAo8-206" value="" style="shape=partialRectangle;whiteSpace=wrap;html=1;bottom=1;right=1;left=1;top=0;fillColor=none;routingCenterX=-0.5;fontSize=14;direction=south;" vertex="1" parent="1">
                    <mxGeometry x="879.5879452054795" y="3150" width="49.86301369863014" height="60" as="geometry"/>
                </mxCell>
                <mxCell id="910AtOY65dqWxyU9QAo8-207" value="" style="endArrow=classic;html=1;fontSize=14;exitX=1;exitY=0.5;exitDx=0;exitDy=0;exitPerimeter=0;entryX=0.5;entryY=0.95;entryDx=0;entryDy=0;entryPerimeter=0;" edge="1" parent="1" target="910AtOY65dqWxyU9QAo8-206">
                    <mxGeometry width="50" height="50" relative="1" as="geometry">
                        <mxPoint x="817.2591780821917" y="3180" as="sourcePoint"/>
                        <mxPoint x="602.1906849315069" y="1310" as="targetPoint"/>
                    </mxGeometry>
                </mxCell>
            </root>
        </mxGraphModel>
    </diagram>
</mxfile>